HIERARCHY
ROOT Hips
{
	OFFSET 0.000000 0.000000 0.000000
	CHANNELS 6 Xposition Yposition Zposition Xrotation Yrotation Zrotation
	JOINT LeftUpLeg_virtual
	{
		OFFSET 0.000000 0.000000 0.000000
		CHANNELS 3 Xrotation Yrotation Zrotation
		JOINT LeftUpLeg
		{
			OFFSET 11.394100 -6.187798 -0.413800
			CHANNELS 3 Xrotation Yrotation Zrotation
			JOINT LeftLeg
			{
				OFFSET 0.430247 -32.302673 3.732800
				CHANNELS 3 Xrotation Yrotation Zrotation
				JOINT LeftFoot
				{
					OFFSET -0.430247 -48.264931 -6.423300
					CHANNELS 3 Xrotation Yrotation Zrotation
					JOINT LeftToeBase
					{
						OFFSET 4.230900 -16.068199 23.438400
						CHANNELS 3 Xrotation Yrotation Zrotation
						JOINT LeftToe_End
						{
							OFFSET 4.510700 0.695400 19.974600
							CHANNELS 3 Xrotation Yrotation Zrotation
							End Site
							{
								OFFSET 0 0 0
							}
						}
					}
				}
			}
		}
	}
	JOINT RightUpLeg_virtual
	{
		OFFSET 0.000000 0.000000 0.000000
		CHANNELS 3 Xrotation Yrotation Zrotation
		JOINT RightUpLeg
		{
			OFFSET -11.333700 -6.187798 -0.413800
			CHANNELS 3 Xrotation Yrotation Zrotation
			JOINT RightLeg
			{
				OFFSET -0.430392 -32.302628 3.733000
				CHANNELS 3 Xrotation Yrotation Zrotation
				JOINT RightFoot
				{
					OFFSET 0.430392 -48.264973 -6.423500
					CHANNELS 3 Xrotation Yrotation Zrotation
					JOINT RightToeBase
					{
						OFFSET -4.230900 -16.068199 23.438400
						CHANNELS 3 Xrotation Yrotation Zrotation
						JOINT RightToe_End
						{
							OFFSET -4.510700 0.695400 19.974600
							CHANNELS 3 Xrotation Yrotation Zrotation
							End Site
							{
								OFFSET 0 0 0
							}
						}
					}
				}
			}
		}
	}
	JOINT Spine_virtual
	{
		OFFSET 0.000000 0.000000 0.000000
		CHANNELS 3 Xrotation Yrotation Zrotation
		JOINT Spine
		{
			OFFSET -0.002400 12.777504 0.315300
			CHANNELS 3 Xrotation Yrotation Zrotation
			JOINT Spine1
			{
				OFFSET -0.002067 5.816869 0.032633
				CHANNELS 3 Xrotation Yrotation Zrotation
				JOINT Spine1_split
				{
					OFFSET -0.002067 5.816869 0.032633
					CHANNELS 3 Xrotation Yrotation Zrotation
					JOINT Spine2
					{
						OFFSET -0.002067 5.816869 0.032633
						CHANNELS 3 Xrotation Yrotation Zrotation
						JOINT Neck_virtual
						{
							OFFSET 0.000000 0.000000 0.000000
							CHANNELS 3 Xrotation Yrotation Zrotation
							JOINT Neck
							{
								OFFSET -0.003700 21.199493 -0.826900
								CHANNELS 3 Xrotation Yrotation Zrotation
								JOINT Head
								{
									OFFSET 0.000000 20.442200 4.834800
									CHANNELS 3 Xrotation Yrotation Zrotation
									JOINT HeadTop_End
									{
										OFFSET 0.000000 34.668396 4.968400
										CHANNELS 3 Xrotation Yrotation Zrotation
										End Site
										{
											OFFSET 0 0 0
										}
									}
								}
							}
						}
						JOINT LeftShoulder_virtual
						{
							OFFSET 0.000000 0.000000 0.000000
							CHANNELS 3 Xrotation Yrotation Zrotation
							JOINT LeftShoulder
							{
								OFFSET 3.288150 8.794197 -1.372250
								CHANNELS 3 Xrotation Yrotation Zrotation
								JOINT LeftShoulder_split
								{
									OFFSET 3.288150 8.794197 -1.372250
									CHANNELS 3 Xrotation Yrotation Zrotation
									JOINT LeftArm
									{
										OFFSET 11.953299 -2.279007 -0.146200
										CHANNELS 3 Xrotation Yrotation Zrotation
										JOINT LeftForeArm
										{
											OFFSET 18.448900 0.000000 0.000000
											CHANNELS 3 Xrotation Yrotation Zrotation
											JOINT LeftHand
											{
												OFFSET 29.527798 0.000000 0.000000
												CHANNELS 3 Xrotation Yrotation Zrotation
												End Site
												{
													OFFSET 0 0 0
												}
											}
										}
									}
								}
							}
						}
						JOINT RightShoulder_virtual
						{
							OFFSET 0.000000 0.000000 0.000000
							CHANNELS 3 Xrotation Yrotation Zrotation
							JOINT RightShoulder
							{
								OFFSET -3.249400 8.794197 -1.372250
								CHANNELS 3 Xrotation Yrotation Zrotation
								JOINT RightShoulder_split
								{
									OFFSET -3.249400 8.794197 -1.372250
									CHANNELS 3 Xrotation Yrotation Zrotation
									JOINT RightArm
									{
										OFFSET -11.953299 -2.279007 -0.146200
										CHANNELS 3 Xrotation Yrotation Zrotation
										JOINT RightForeArm
										{
											OFFSET -18.448900 0.000000 0.000000
											CHANNELS 3 Xrotation Yrotation Zrotation
											JOINT RightHand
											{
												OFFSET -29.527802 0.000000 0.000000
												CHANNELS 3 Xrotation Yrotation Zrotation
												End Site
												{
													OFFSET 0 0 0
												}
											}
										}
									}
								}
							}
						}
					}
				}
			}
		}
	}
}
MOTION
Frames: 7
Frame Time: 0.03333333
4.523659 94.781006 -0.024761 0.000000 0.000000 0.000000 117.208956 -87.187078 116.600550 -33.394540 33.004348 36.721686 26.808866 -8.251236 1.042440 -1.256700 5.544726 -17.218133 -1.836411 -0.000626 -0.000029 0.000000 0.000000 0.000000 117.208956 -87.187078 116.600550 -30.748275 -13.124098 -20.343674 14.795347 9.987516 -3.664346 6.647528 14.135501 18.777163 -0.001639 -0.000382 -0.000007 0.000000 0.000000 0.000000 117.208956 -87.187078 116.600550 5.392294 -2.293764 -7.858356 2.771440 -0.553950 -1.077814 0.000000 0.000000 0.000000 0.000000 0.000000 0.000000 2.777687 -0.510268 -1.087486 -12.273406 6.004517 4.761555 20.231346 76.958064 -25.708581 0.000000 0.000000 0.000000 2.777687 -0.510268 -1.087486 5.516885 -2.188421 12.208352 0.000000 0.000000 0.000000 -41.899362 5.599291 2.227374 0.045078 -12.980541 -0.290002 0.000000 0.000000 0.000000 2.777687 -0.510268 -1.087486 -2.478558 1.878760 -16.638411 0.000000 0.000000 0.000000 -51.925902 54.163789 47.616619 -178.637437 49.479694 -179.753189 0.000000 0.000000 0.000000 
4.525071 94.788589 -0.024258 0.000000 0.000000 0.000000 117.207358 -87.199345 116.607066 -33.356998 33.018186 36.686397 26.776918 -8.247291 1.057327 -1.244588 5.545225 -17.222879 -1.637684 -0.000718 -0.000042 0.000000 0.000000 0.000000 117.207358 -87.199345 116.607066 -30.715562 -13.123806 -20.357264 14.759591 9.982378 -3.648112 6.660500 14.134539 18.774095 0.000786 -0.000396 0.000158 0.000000 0.000000 0.000000 117.207358 -87.199345 116.607066 5.392242 -2.293868 -7.857990 2.771261 -0.563893 -1.076319 0.000000 0.000000 0.000000 0.000000 0.000000 0.000000 2.777363 -0.526632 -1.085020 -12.248463 5.976468 4.762426 20.362346 77.005861 -25.852985 0.000000 0.000000 0.000000 2.777363 -0.526632 -1.085020 5.523681 -2.173153 12.243788 0.000000 0.000000 0.000000 -41.919282 5.652347 2.202114 0.064105 -13.136952 -0.284902 0.000000 0.000000 0.000000 2.777363 -0.526632 -1.085020 -2.480389 1.866609 -16.643230 0.000000 0.000000 0.000000 -51.815792 54.140273 47.365221 179.227415 49.509821 -178.185442 0.000000 0.000000 0.000000 
4.526851 94.796951 -0.021065 0.000000 0.000000 0.000000 116.998736 -87.218777 116.408485 -33.323103 33.034538 36.647950 26.745112 -8.256188 1.072396 -1.232172 5.545052 -17.221634 -1.622603 -0.000688 -0.000046 0.000000 0.000000 0.000000 116.998736 -87.218777 116.408485 -30.671012 -13.118467 -20.375148 14.716609 9.961176 -3.633580 6.672821 14.133224 18.777028 0.000105 -0.000424 0.000139 0.000000 0.000000 0.000000 116.998736 -87.218777 116.408485 5.418820 -2.291755 -7.837700 2.804002 -0.568249 -1.061617 0.000000 0.000000 0.000000 0.000000 0.000000 0.000000 2.813112 -0.548238 -1.065947 -12.220986 5.899819 4.769475 20.723859 77.072674 -26.316813 0.000000 0.000000 0.000000 2.813112 -0.548238 -1.065947 5.552298 -2.127871 12.340268 0.000000 0.000000 0.000000 -42.041126 5.758723 2.080978 0.076802 -13.147933 -0.281644 0.000000 0.000000 0.000000 2.813112 -0.548238 -1.065947 -2.484597 1.832605 -16.660976 0.000000 0.000000 0.000000 -52.022979 54.080065 47.449017 179.274448 49.456990 -178.221588 0.000000 0.000000 0.000000 
4.528870 94.804619 -0.014732 0.000000 0.000000 0.000000 116.543764 -87.245940 115.965274 -33.292671 33.045029 36.603663 26.720719 -8.272676 1.087980 -1.222390 5.544357 -17.215203 -1.598487 -0.000683 -0.000036 0.000000 0.000000 0.000000 116.543764 -87.245940 115.965274 -30.618782 -13.101116 -20.398712 14.677281 9.916562 -3.621707 6.680031 14.131572 18.787369 0.000509 -0.000376 0.000114 0.000000 0.000000 0.000000 116.543764 -87.245940 115.965274 5.431121 -2.306575 -7.818245 2.800295 -0.616383 -1.060637 0.000000 0.000000 0.000000 0.000000 0.000000 0.000000 2.814545 -0.624594 -1.055656 -12.191939 5.786900 4.782603 21.205688 77.275681 -26.812881 0.000000 0.000000 0.000000 2.814545 -0.624594 -1.055656 5.595400 -2.057282 12.486840 0.000000 0.000000 0.000000 -42.079358 5.946060 1.971268 0.088174 -13.162962 -0.278396 0.000000 0.000000 0.000000 2.814545 -0.624594 -1.055656 -2.491060 1.778941 -16.689706 0.000000 0.000000 0.000000 -52.210526 54.072050 47.554837 179.342463 49.475964 -178.272363 0.000000 0.000000 0.000000 
4.531050 94.812378 -0.004688 0.000000 0.000000 0.000000 115.799724 -87.281130 115.234758 -33.259975 33.045500 36.548093 26.700997 -8.291861 1.104055 -1.214376 5.543189 -17.204376 -1.594969 -0.000714 -0.000040 0.000000 0.000000 0.000000 115.799724 -87.281130 115.234758 -30.557355 -13.075584 -20.428496 14.638299 9.849374 -3.613001 6.682722 14.131059 18.805316 0.002539 -0.000383 0.000214 0.000000 0.000000 0.000000 115.799724 -87.281130 115.234758 5.468015 -2.318795 -7.784679 2.833652 -0.661695 -1.051220 0.000000 0.000000 0.000000 0.000000 0.000000 0.000000 2.854473 -0.705637 -1.031753 -12.162017 5.650281 4.799957 21.859486 77.473470 -27.576585 0.000000 0.000000 0.000000 2.854473 -0.705637 -1.031753 5.649065 -1.965035 12.671609 0.000000 0.000000 0.000000 -42.224667 6.161096 1.794984 0.098114 -13.179271 -0.275516 0.000000 0.000000 0.000000 2.854473 -0.705637 -1.031753 -2.499397 1.708570 -16.728573 0.000000 0.000000 0.000000 -52.498200 53.995173 47.685922 179.427731 49.466245 -178.333589 0.000000 0.000000 0.000000 
4.533306 94.820175 0.009521 0.000000 0.000000 0.000000 114.698561 -87.324897 114.149140 -33.225629 33.034941 36.480874 26.686492 -8.309422 1.120583 -1.208423 5.535890 -17.188921 -1.565368 -0.000653 -0.000033 0.000000 0.000000 0.000000 114.698561 -87.324897 114.149140 -30.485361 -13.043686 -20.466237 14.597917 9.761150 -3.606453 6.681287 14.129436 18.831344 0.005394 -0.000341 0.000091 0.000000 0.000000 0.000000 114.698561 -87.324897 114.149140 5.494141 -2.334435 -7.749505 2.831231 -0.727257 -1.042509 0.000000 0.000000 0.000000 0.000000 0.000000 0.000000 2.864443 -0.816323 -1.014857 -12.131644 5.502053 4.821832 22.599330 77.720415 -28.349919 0.000000 0.000000 0.000000 2.864443 -0.816323 -1.014857 5.709506 -1.855207 12.883032 0.000000 0.000000 0.000000 -42.296527 6.398966 1.608196 0.106707 -13.198003 -0.273060 0.000000 0.000000 0.000000 2.864443 -0.816323 -1.014857 -2.509153 1.623946 -16.776958 0.000000 0.000000 0.000000 -52.741235 53.946948 47.809057 179.528722 49.484680 -178.405456 0.000000 0.000000 0.000000 
4.535552 94.828041 0.027702 0.000000 0.000000 0.000000 113.185407 -87.376766 112.653179 -33.188080 33.010581 36.400086 26.677145 -8.330886 1.136607 -1.204220 5.529681 -17.168116 -1.569769 -0.000671 -0.000035 0.000000 0.000000 0.000000 113.185407 -87.376766 112.653179 -30.401500 -13.006775 -20.512694 14.554129 9.651113 -3.601329 6.676334 14.126981 18.865160 0.008509 -0.000375 0.000157 0.000000 0.000000 0.000000 113.185407 -87.376766 112.653179 5.521854 -2.363537 -7.709160 2.828987 -0.825381 -1.038388 0.000000 0.000000 0.000000 0.000000 0.000000 0.000000 2.871767 -0.964160 -0.991808 -12.102374 5.353471 4.849426 23.492559 78.022726 -29.266384 0.000000 0.000000 0.000000 2.871767 -0.964160 -0.991808 5.772967 -1.731581 13.109219 0.000000 0.000000 0.000000 -42.354662 6.690697 1.431778 0.113819 -13.218101 -0.270829 0.000000 0.000000 0.000000 2.871767 -0.964160 -0.991808 -2.519976 1.527675 -16.834103 0.000000 0.000000 0.000000 -53.006369 53.910321 47.954475 179.637650 49.544649 -178.482624 0.000000 0.000000 0.000000 
